<?xml version="1.0" encoding="UTF-8" standalone="no"?>
<!-- Created with Inkscape (http://www.inkscape.org/) -->

<svg
   xmlns:dc="http://purl.org/dc/elements/1.1/"
   xmlns:cc="http://creativecommons.org/ns#"
   xmlns:rdf="http://www.w3.org/1999/02/22-rdf-syntax-ns#"
   xmlns:svg="http://www.w3.org/2000/svg"
   xmlns="http://www.w3.org/2000/svg"
   xmlns:sodipodi="http://sodipodi.sourceforge.net/DTD/sodipodi-0.dtd"
   xmlns:inkscape="http://www.inkscape.org/namespaces/inkscape"
   width="113.38583"
   height="106.29921"
   id="svg3015"
   version="1.1"
   inkscape:version="0.48.4 r9939"
   sodipodi:docname="lastbeat.svg"
   inkscape:export-filename="C:\Users\Danubio\Desktop\lastbeat.png"
   inkscape:export-xdpi="90"
   inkscape:export-ydpi="90">
  <defs
     id="defs3">
    <inkscape:perspective
       id="perspective10"
       inkscape:persp3d-origin="1741.9149 : 291.29691 : 1"
       inkscape:vp_z="3549.8266 : 411.40019 : 1"
       inkscape:vp_y="0 : 684.76394 : 0"
       inkscape:vp_x="-65.996834 : 411.40019 : 1"
       sodipodi:type="inkscape:persp3d" />
  </defs>
  <sodipodi:namedview
     id="base"
     pagecolor="#ffffff"
     bordercolor="#666666"
     borderopacity="1.0"
     inkscape:pageopacity="1"
     inkscape:pageshadow="2"
     inkscape:zoom="2.4"
     inkscape:cx="171.16631"
     inkscape:cy="47.887909"
     inkscape:document-units="mm"
     inkscape:current-layer="layer1"
     showgrid="false"
     units="mm"
     inkscape:window-width="1920"
     inkscape:window-height="1017"
     inkscape:window-x="-9"
     inkscape:window-y="25"
     inkscape:window-maximized="1"
     borderlayer="true" />
  <metadata
     id="metadata3019">
    <rdf:RDF>
      <cc:Work
         rdf:about="">
        <dc:format>image/svg+xml</dc:format>
        <dc:type
           rdf:resource="http://purl.org/dc/dcmitype/StillImage" />
        <dc:title />
      </cc:Work>
    </rdf:RDF>
  </metadata>
  <g
     inkscape:label="Layer 1"
     inkscape:groupmode="layer"
     id="layer1"
     transform="translate(0,-70.866142)">
    <g
       transform="matrix(0.09866955,0,0,0.09866955,219.72829,272.9136)"
       id="layer1-7"
       inkscape:label="Layer 1">
      <g
         transform="matrix(0.2535648,0,0,0.2535648,-1643.2995,-1554.0211)"
         id="g2386">
        <path
           sodipodi:type="arc"
           style="fill:#6a005e;fill-opacity:0.6463878;stroke:#000000;stroke-width:80;stroke-linecap:round;stroke-linejoin:round;stroke-miterlimit:4;stroke-opacity:1;stroke-dasharray:none"
           id="path3187"
           sodipodi:cx="-1048.5714"
           sodipodi:cy="3.7907546"
           sodipodi:rx="465.71429"
           sodipodi:ry="465.71429"
           d="m -582.85712,3.7907546 c 0,257.2069054 -208.50739,465.7142954 -465.71428,465.7142954 -257.2069,0 -465.7143,-208.50739 -465.7143,-465.7142954 0,-257.2069046 208.5074,-465.7142946 465.7143,-465.7142946 257.20689,0 465.71428,208.50739 465.71428,465.7142946 z"
           transform="matrix(4.3333332,0,0,4.3333332,4533.7078,193.07844)" />
        <path
           sodipodi:type="arc"
           style="fill:#ffffff;fill-opacity:1;stroke:#000000;stroke-width:80;stroke-linecap:round;stroke-linejoin:round;stroke-miterlimit:4;stroke-opacity:1;stroke-dasharray:none"
           id="path3185"
           sodipodi:cx="-1048.5714"
           sodipodi:cy="3.7907546"
           sodipodi:rx="465.71429"
           sodipodi:ry="465.71429"
           d="m -582.85712,3.7907546 c 0,257.2069054 -208.50739,465.7142954 -465.71428,465.7142954 -257.2069,0 -465.7143,-208.50739 -465.7143,-465.7142954 0,-257.2069046 208.5074,-465.7142946 465.7143,-465.7142946 257.20689,0 465.71428,208.50739 465.71428,465.7142946 z"
           transform="matrix(2.9548022,0,0,2.9548022,3088.2196,198.30411)" />
        <path
           sodipodi:type="arc"
           style="fill:#ffffff;fill-opacity:1;stroke:#000000;stroke-width:80;stroke-linecap:round;stroke-linejoin:round;stroke-miterlimit:4;stroke-opacity:1;stroke-dasharray:none"
           id="path3183"
           sodipodi:cx="-1048.5714"
           sodipodi:cy="3.7907546"
           sodipodi:rx="465.71429"
           sodipodi:ry="465.71429"
           d="m -582.85712,3.7907546 c 0,257.2069054 -208.50739,465.7142954 -465.71428,465.7142954 -257.2069,0 -465.7143,-208.50739 -465.7143,-465.7142954 0,-257.2069046 208.5074,-465.7142946 465.7143,-465.7142946 257.20689,0 465.71428,208.50739 465.71428,465.7142946 z"
           transform="matrix(1.8248587,0,0,1.8248587,1903.3932,202.58745)" />
        <path
           sodipodi:type="arc"
           style="fill:#ffffff;fill-opacity:1;stroke:#000000;stroke-width:80;stroke-linecap:round;stroke-linejoin:round;stroke-miterlimit:4;stroke-opacity:1;stroke-dasharray:none"
           id="path3181"
           sodipodi:cx="-1048.5714"
           sodipodi:cy="3.7907546"
           sodipodi:rx="465.71429"
           sodipodi:ry="465.71429"
           d="m -582.85712,3.7907546 c 0,257.2069054 -208.50739,465.7142954 -465.71428,465.7142954 -257.2069,0 -465.7143,-208.50739 -465.7143,-465.7142954 0,-257.2069046 208.5074,-465.7142946 465.7143,-465.7142946 257.20689,0 465.71428,208.50739 465.71428,465.7142946 z"
           transform="translate(1038.4699,205.71429)" />
        <path
           style="fill:#ffffff;fill-opacity:1;stroke:none"
           d="M -7.2443685,-405.16952 1621.3753,-2524.6454 l -3432.2296,0 z"
           id="path3192"
           sodipodi:nodetypes="cccc"
           inkscape:connector-curvature="0" />
        <path
           style="fill:#ffffff;fill-opacity:1;stroke:none"
           d="M -7.2442174,932.76048 2376.6065,2904.2635 l -4656.2251,13.0213 z"
           id="rect3189"
           sodipodi:nodetypes="cccc"
           inkscape:connector-curvature="0" />
        <path
           style="fill:#000000;fill-opacity:1;stroke:none"
           d="m 131.32707,222.36219 c -1.46974,57.93861 -34.869265,106.08958 -86.395195,130.30875 -8.45919,3.57991 81.463415,1811.72506 84.886425,1869.67356 -135.5158961,0.4938 -138.7544161,0.193 -280.84976,0.765 2.41286,-57.9485 94.355745,-1866.85865 85.89655,-1870.43856 -52.89927,-24.01413 -84.0897,-73.33088 -86.39517,-130.30875 0,-78.06857 63.35999,-141.428577 141.428565,-141.428577 78.06857,0 141.428585,63.360007 141.428585,141.428577 z"
           id="path2385"
           sodipodi:nodetypes="ccccccsc"
           inkscape:connector-curvature="0" />
      </g>
    </g>
  </g>
</svg>
